<svg clip-rule="evenodd" fill-rule="evenodd" stroke-linejoin="round" stroke-miterlimit="2" viewBox="0 0 64 64" xmlns="http://www.w3.org/2000/svg"><path d="m0 0h64v64h-64z" fill="none"/><g fill-rule="nonzero" transform="matrix(.07112569121 0 0 .07112569121 2.39337056 3.03185816)"><path d="m439.556 474.333-140.912-140.933-8.644 97.333 52.222 52.245z" fill="#ececec" stroke="#000" stroke-width="14.06"/><path d="m342.222 494.067c-2.944-.012-5.77-1.177-7.866-3.245l-52.245-52.244c-2.321-2.32-3.502-5.552-3.222-8.822l8.644-97.334c.516-5.695 5.348-10.109 11.066-10.109 2.94 0 5.763 1.167 7.845 3.243l140.912 140.933c2.074 2.082 3.241 4.904 3.241 7.843 0 5.726-4.427 10.562-10.13 11.068l-97.311 8.644zm-40.711-67.534 44.911 44.911 68.467-6.066-107.289-107.289z" fill="#ececec"/><path d="m688.889 711.111h-66.667c0-73.644-58.444-133.333-130.555-133.333-72.089 0-130.556 59.689-130.556 133.333h-167.111c0-24.381-20.063-44.444-44.444-44.444-24.382 0-44.445 20.063-44.445 44.444-24.381 0-44.444 20.063-44.444 44.445 0 24.381 20.063 44.444 44.444 44.444h583.778c24.381 0 44.444-20.063 44.444-44.444 0-24.382-20.063-44.445-44.444-44.445z" fill="#fff"/><path d="m444.444 222.222v88.889c85.336 0 155.556 70.22 155.556 155.556 0 85.335-70.22 155.555-155.556 155.555h-188.555c44.844 54.289 112.644 88.889 188.555 88.889 135 0 244.445-109.444 244.445-244.444s-109.445-244.445-244.445-244.445z" fill="#fff"/><path d="m364.756 675.867c-17.24 17.234-45.606 17.234-62.845 0l-219.978-220c-8.328-8.332-13.012-19.642-13.012-31.423 0-24.382 20.064-44.445 44.446-44.445 11.786 0 23.101 4.688 31.433 13.023l219.978 220c17.228 17.246 17.218 45.611-.022 62.845zm-160.556-39.689c1.196-.198 2.406-.297 3.618-.297 12.191 0 22.223 10.032 22.223 22.222 0 11.228-8.51 20.782-19.663 22.075l-132.045 18.533c-1.019.143-2.048.214-3.077.214-12.193 0-22.226-10.033-22.226-22.225 0-11.035 8.219-20.483 19.148-22.011z" fill="#88c200"/><path d="m607.578 66.222 99.133 99.134-84.578 84.6-99.133-99.134z" fill="#167bba"/><path d="m756.378 157.4c-18.272 18.258-48.328 18.258-66.6 0l-74.2-74.222c-7.996-8.693-12.438-20.083-12.438-31.894 0-25.844 21.267-47.111 47.112-47.111 11.805 0 23.19 4.438 31.881 12.427l74.267 74.222c18.238 18.276 18.228 48.314-.022 66.578zm-323.556 333.911-151.155-151.178c-8.582-8.635-8.582-22.786 0-31.422l219.066-219.067c8.636-8.581 22.787-8.581 31.423 0l151.133 151.178c8.582 8.636 8.582 22.787 0 31.422l-219.067 219.067c-8.622 8.591-22.777 8.591-31.4 0z" fill="#8fcceb"/><path d="m305.911 284.444 36.4-36.377 182.578 182.577-36.4 36.378z" fill="#fff"/></g></svg>