<svg clip-rule="evenodd" fill-rule="evenodd" stroke-linejoin="round" stroke-miterlimit="2" viewBox="0 0 64 64" xmlns="http://www.w3.org/2000/svg"><path d="m-.000408-.001h64v64h-64z" fill="none"/><path d="m20 13.816c1.195-.421-3.195-.421-2 0v1.684c0 2.469-2.031 4.5-4.5 4.5s-4.5-2.031-4.5-4.5v-.59c2.872-.488 4.995-2.997 5-5.91v-6c0-.549-.451-1-1-1l-1 2v5c0 2.194-1.806 4-4 4s-4-1.806-4-4v-5l-1-2c-.549 0-1 .451-1 1v6c.005 2.913 2.128 5.422 5 5.91v.59c0 3.566 2.934 6.5 6.5 6.5s6.5-2.934 6.5-6.5z" fill="#676e78" fill-rule="nonzero" transform="matrix(2.8 0 0 2.8 -1.60067 -1.6)"/><path d="m19.007 8h-.014c-1.642 0-2.993 1.351-2.993 2.993 0 1.267.805 2.402 2 2.823h2c1.195-.421 2-1.556 2-2.823 0-1.642-1.351-2.993-2.993-2.993zm-.007 4c-.549 0-1-.451-1-1s.451-1 1-1 1 .451 1 1c-.001.548-.452.999-1 1z" fill="#c44d58" fill-rule="nonzero" transform="matrix(2.8 0 0 2.8 -1.60067 -1.6)"/><g fill="#167bba" stroke-width=".757539"><circle cx="9.473654228" cy="6.560081566" r="3.99980592"/><circle cx="31.253894228" cy="6.779831566" r="3.99980592"/></g></svg>